<?xml version="1.0" encoding="UTF-8" standalone="no"?>
<!-- Created with Inkscape (http://www.inkscape.org/) -->

<svg
   width="6.6145902mm"
   height="6.6145802mm"
   viewBox="0 0 6.6145902 6.6145802"
   version="1.1"
   id="svg1"
   inkscape:version="1.4 (1:1.4+202410161351+e7c3feb100)"
   sodipodi:docname="mindscript-white-logo.svg"
   xmlns:inkscape="http://www.inkscape.org/namespaces/inkscape"
   xmlns:sodipodi="http://sodipodi.sourceforge.net/DTD/sodipodi-0.dtd"
   xmlns="http://www.w3.org/2000/svg"
   xmlns:svg="http://www.w3.org/2000/svg">
  <sodipodi:namedview
     id="namedview1"
     pagecolor="#ffffff"
     bordercolor="#666666"
     borderopacity="1.0"
     inkscape:showpageshadow="2"
     inkscape:pageopacity="0.0"
     inkscape:pagecheckerboard="0"
     inkscape:deskcolor="#d1d1d1"
     inkscape:document-units="mm"
     inkscape:zoom="25.257463"
     inkscape:cx="21.162062"
     inkscape:cy="16.965282"
     inkscape:window-width="2494"
     inkscape:window-height="1371"
     inkscape:window-x="66"
     inkscape:window-y="32"
     inkscape:window-maximized="1"
     inkscape:current-layer="layer1" />
  <defs
     id="defs1" />
  <g
     inkscape:label="Layer 1"
     inkscape:groupmode="layer"
     id="layer1"
     transform="translate(-100.75418,-145.65162)">
    <path
       id="rect24901"
       style="fill:#ffffff;fill-opacity:1;stroke:none;stroke-width:0.282223;stroke-linecap:round;stroke-linejoin:round;stroke-miterlimit:4;stroke-dasharray:none"
       d="m 101.19498,145.65162 c -0.24429,0 -0.4408,0.1965 -0.4408,0.4408 v 5.73298 c 0,0.2443 0.19651,0.4408 0.4408,0.4408 h 5.73299 c 0.24429,0 0.4408,-0.1965 0.4408,-0.4408 v -5.73298 c 0,-0.2443 -0.19651,-0.4408 -0.4408,-0.4408 z m 3.6003,2.50682 h 0.40824 v 0.47284 c 0,0.2361 0.0297,0.3967 0.0894,0.48214 0.0597,0.0854 0.16723,0.12943 0.32247,0.13126 v -1.08624 h 0.40669 v 1.08624 c 0.10565,-0.002 0.18707,-0.0206 0.24495,-0.0553 0.0588,-0.0358 0.10151,-0.0957 0.12815,-0.17932 0.0267,-0.0845 0.0403,-0.21067 0.0403,-0.37879 v -0.47284 h 0.40669 v 0.54054 c 0,0.20854 -0.0233,0.37052 -0.0692,0.48627 -0.0459,0.11575 -0.12724,0.21084 -0.24392,0.28526 -0.11667,0.0735 -0.28554,0.11345 -0.50694,0.11988 v 0.5886 h -0.40669 v -0.5886 c -0.2113,-0.007 -0.37667,-0.0446 -0.4961,-0.1142 -0.11851,-0.0707 -0.20194,-0.16444 -0.25063,-0.28112 -0.0487,-0.11667 -0.0729,-0.28204 -0.0729,-0.49609 z m -1.15135,0.79478 h 0.52503 l 0.30128,0.7674 0.78444,2.01021 h -0.54983 l -0.34675,-0.91312 c -0.0442,-0.11369 -0.0954,-0.26527 -0.15348,-0.45475 -0.0493,0.16168 -0.0988,0.31028 -0.14935,0.44545 l -0.34519,0.92242 h -0.54571 l 0.77308,-2.01021 z" />
  </g>
</svg>
